<svg width="78" height="20" fill="none" xmlns="http://www.w3.org/2000/svg"><ellipse cx="8" cy="10" rx="8" ry="6" fill="#039200"/><ellipse cx="34.5" cy="10" rx="7.5" ry="6" fill="#FBFF2F"/><ellipse cx="59.5" cy="10" rx="7.5" ry="6" fill="#FF0202"/><path d="M77.75 10c0 2.668-1.405 5.1-3.71 6.873-2.305 1.773-5.5 2.877-9.04 2.877-3.54 0-6.735-1.104-9.04-2.877-2.305-1.773-3.71-4.205-3.71-6.873s1.405-5.1 3.71-6.873C58.265 1.354 61.46.25 65 .25c3.54 0 6.735 1.104 9.04 2.877C76.345 4.9 77.75 7.332 77.75 10z" stroke="#FF0202" stroke-width=".5"/></svg>