<svg width="77" height="20" fill="none" xmlns="http://www.w3.org/2000/svg"><ellipse cx="69" cy="10" rx="8" ry="6" transform="rotate(-180 69 10)" fill="#039200"/><ellipse cx="44" cy="10" rx="8" ry="6" transform="rotate(-180 44 10)" fill="#FBFF2F"/><ellipse cx="18" cy="10" rx="8" ry="6" transform="rotate(-180 18 10)" fill="#FF0202"/><path d="M.25 10c0-2.668 1.405-5.1 3.71-6.873C6.265 1.354 9.46.25 13 .25c3.54 0 6.735 1.104 9.04 2.877C24.345 4.9 25.75 7.332 25.75 10s-1.405 5.1-3.71 6.873c-2.305 1.773-5.5 2.877-9.04 2.877-3.54 0-6.735-1.104-9.04-2.877C1.655 15.1.25 12.668.25 10z" stroke="#FF0202" stroke-width=".5"/></svg>