<svg width="100" height="66" fill="none" xmlns="http://www.w3.org/2000/svg"><path d="M97.297 9.238l1.991 2.544V63.39H55.48c-3.872 2.434-7.025 2.323-10.897 0H0V11.561l2.213-2.71v48.897l9.845 1.162c.627.092 3.53.22 5.255 0 2.158-.277 11.118-4.26 15.82-4.536 4.702-.277 9.127-.332 9.625-.332.497 0 5.144.387 6.25 4.868h1.494c.645-1.789 3.661-4.868 7.688-4.868l8.574 1.106c5.365 1.494 15.82 5.2 18.696 5.2l11.837-2.268V9.238z" fill="#052DFF"/><path d="M49.67 61.73c.61-1.366 3.737-4.775 7.033-5.657 3.296-.883 5.483-.388 8.585.554 3.101.942 8.53 3.38 15.342 4.156h5.15l11.626-2.648V9.301l-4.702-5.926L85.781 9.3c-4.487 0-13.26-2.926-18.666-3.99-6.757-1.33-15.673-1.446-17.445 2.71v53.71zm0 0c-.615-1.367-3.218-4.83-6.545-5.713-3.327-.882-5.534-.388-8.664.554-3.13.943-8.61 3.38-15.485 4.157h-5.198L2.044 58.08V9.245L6.79 3.32l6.987 5.926c4.528 0 13.383-2.926 18.839-3.99 6.82-1.33 15.265-1.557 17.054 2.6V61.73z" fill="#FFE640"/><path d="M50 56c.623-1.373 2.804-3.845 6.175-4.731 3.372-.886 5.609-.39 8.782.557 3.172.946 8.724 3.395 15.693 4.174h3.24L93 54.34V3.346l-7.082.947c-4.589 0-13.563-2.94-19.092-4.008-6.912-1.336-14.956 2.227-16.77 6.401L50 56zm0 0c-.623-1.373-2.804-3.845-6.175-4.731-3.372-.886-5.609-.39-8.782.557-3.172.946-8.724 3.395-15.692 4.174h-5.27L7 54.275V3.346l7.082.947c4.589 0 13.563-2.94 19.092-4.008 6.912-1.336 14.956 2.227 16.77 6.401L50 56z" fill="#fff"/><path fill-rule="evenodd" clip-rule="evenodd" d="M46.624 5.86c7.154.113 8.562 9.891 8.37 14.766 1.933-2.742 11.448-8.578 16.814-4.992 5.366 3.586 5.724 7.664 5.223 10.828-.5 3.164-1.002 6.117-4.794 11.25-3.033 4.106-12.043 10.242-16.169 12.796 2.06 1.055 3.482 2.455 3.935 3.024-.687 0-4.007-1.688-5.58-2.532l-.716.563c1.831.819 3.005 2.028 3.363 2.531-1.26.113-3.96-.984-5.152-1.547l-.358.211c1.233.852 1.504 1.16 1.65 1.327.084.095.127.144.282.22-.973.169-2.79-.586-3.577-.984-1.374.618-2.767.773-3.291.773 1.67-.96 6.196-3.6 10.946-6.468 4.751-2.87 9.278-7.993 10.947-10.196-.81.703-2.962 2.588-5.08 4.5-2.647 2.39-12.449 9.211-16.17 11.04-2.976 1.462-4.006 1.64-4.149 1.546 1.813-1.266 6.34-4.373 9.945-6.68 3.606-2.306 9.516-8.413 12.02-11.179-3.124 2.789-9.573 8.522-10.374 9.14-1.002.774-11.806 7.524-12.95 7.735-.916.168-1.479.07-1.646 0l4.436-2.813c-3.84-2.133-12.52-7.537-16.527-12.093-4.65-5.287-4.983-10.635-5.064-11.937-.006-.1-.01-.177-.016-.227-.072-.703-.787-8.648 7.083-11.11 6.296-1.968 12.783 3.165 15.24 5.977 2.217-2.39 1.717-4.922 1.359-5.695-.358-.773-1.288-2.46-3.22-2.39A2.903 2.903 0 0040.83 15c-1.26-1.125-.382-3.187.214-4.078-.114-4.106 3.673-5.086 5.58-5.062zm18.603 20.18c4.121 6.806-8.443 16.898-15.24 21.093-2.718-2.085-9.029-7.157-12.52-10.757-4.364-4.5-4.65-11.25 1.288-13.851 4.75-2.081 9.086 3.257 10.66 6.187.267-.245.559-.523.872-.82 3.636-3.453 10.197-9.684 14.94-1.852zM48.09 47.308l-.948.724c-4.087-2.46-10.99-8.643-12.333-11.364 3.454 3.136 10.946 9.656 13.281 10.64zm-2.923 2.094l.869-.583c-1.375-.437-11.17-8.276-15.199-12.014 1.39 3.087 9.843 10.194 14.33 12.597z" fill="#052DFF"/><path d="M50.53 46.547c-7.086-10.833-8.345-17.934-2.481-20.438 1.038-.444 4.537-1.099 5.862 3.114-.105-1.265-1.538-5.378-5.849-4.816-5.388.703-5.824 6.282-5.898 6.892-.395 3.25 1.439 9.906 8.366 15.248z" fill="#FFE640"/><path d="M50.64 30.732a5.96 5.96 0 01.448-.501c.639-.634 1.448-1.145 2.405-1.52a10.07 10.07 0 011.596-.466l-3.825-.822 5.893.56c.393-.018.74-.02 1.024-.013v-.01c-.88-1.116-3.007-3.437-5.749-3.861-1.345-.208-2.649.07-3.758.504-1.886.738-3.21 1.924-3.21 1.924s2.093 3.176 5.176 4.204z" fill="#FFE640"/><path d="M53.761 33.814l2.46-2.776c.403-.986.885-1.78 1.209-2.255-.986.026-2.362.17-3.657.675-.765.3-1.5.724-2.106 1.325-2.487 2.466-1.875 6.965-1.875 6.965s2.656.287 5.027-.64a6.929 6.929 0 001.066-.523 6.653 6.653 0 01-.184-.596c-.354-1.424-.177-2.824.191-4.033l-2.13 1.858z" fill="#FFE640"/><path d="M60.272 35.804l-2.054-6.546c-.7 1.035-2.26 3.735-1.588 6.45.856 3.451 5.008 5.604 5.008 5.604s2.677-3.345 1.936-6.745c-2.01-.906-3.418-2.643-4.262-3.992l.96 5.23zm6.401-8.429c-.155-.056-.313-.09-.47-.133a7.593 7.593 0 01-1.992 1.135c-.802.313-1.613.496-2.352.612l4.462 1.906-5.913-1.754a14.1 14.1 0 01-.732.021c.68 1.297 2.273 3.803 4.802 4.716 2.247.81 4.68.158 6.115-.403.781-.305 1.267-.583 1.267-.583s-1.717-4.266-5.187-5.518zm-2.589-4.235l-3.732 4.596c-.143.255-.272.46-.375.615.881-.014 2.457-.13 3.967-.72.862-.337 1.697-.827 2.356-1.54 2.376-2.569 1.575-7.05 1.575-7.05s-2.428-.166-4.672.711c-.845.331-1.662.812-2.316 1.503.735 1.784.598 3.434.21 4.724l2.987-2.84z" fill="#FFE640"/><path d="M57.923 26.173l-1.601-4.134 1.906 3.58.172.407.781 1.795c1.628-2.562 2.783-8.148-5.248-10.999 0 0-1.735 3.363-.8 6.457 2.018.46 3.678 1.763 4.79 2.894zM44.322 36.93l-4.272-1.814 3.643 2.083h-.001l.42.193 1.845.872c-2.93 1.46-9.063 2.279-11.257-5.8 0 0 3.804-1.52 7.03-.421.275 2.015 1.496 3.726 2.592 4.887z" fill="#FFE640"/></svg>