<svg width="430" height="239" fill="none" xmlns="http://www.w3.org/2000/svg"><g filter="url(#filter0_f)"><path fill="#fff" d="M40 40h350v152H40z"/></g><path d="M64.302 150v-14h1.58v6.22h8.08V136h1.58v14h-1.58v-6.3h-8.08v6.3h-1.58zm19.016.22c-1.054 0-1.96-.287-2.72-.86-.76-.573-1.14-1.373-1.14-2.4 0-1.08.4-1.913 1.2-2.5.8-.587 1.873-.88 3.22-.88 1.066 0 2.12.147 3.16.44v-.32c0-.907-.267-1.6-.8-2.08-.534-.48-1.287-.72-2.26-.72-1.014 0-2.06.247-3.14.74l-.46-1.26c1.28-.587 2.533-.88 3.76-.88 1.466 0 2.58.38 3.34 1.14.72.72 1.08 1.733 1.08 3.04V150h-1.52v-1.54c-.92 1.173-2.16 1.76-3.72 1.76zm.3-1.24c.96 0 1.773-.26 2.44-.78.666-.52 1-1.187 1-2v-.96a10.832 10.832 0 00-3.02-.44c-.947 0-1.687.193-2.22.58-.534.373-.8.887-.8 1.54 0 .627.246 1.127.74 1.5.506.373 1.126.56 1.86.56zM92.82 150v-10.34h5c1.026 0 1.846.233 2.46.7.613.467.92 1.093.92 1.88 0 1.107-.574 1.9-1.72 2.38 1.52.413 2.28 1.267 2.28 2.56 0 .867-.34 1.553-1.02 2.06-.68.507-1.594.76-2.74.76h-5.18zm1.54-1.32h3.44c.733 0 1.313-.153 1.74-.46.426-.307.64-.733.64-1.28 0-.507-.227-.9-.68-1.18-.44-.28-1.074-.42-1.9-.42h-3.24v3.34zm0-4.58h3.18c.64 0 1.146-.14 1.52-.42.386-.293.58-.707.58-1.24 0-.44-.18-.793-.54-1.06-.36-.267-.867-.4-1.52-.4h-3.22v3.12zm17.738 5.9v-4.26c-.413.24-.953.46-1.62.66-.666.187-1.28.28-1.84.28-1.04 0-1.873-.267-2.5-.8-.613-.533-.92-1.3-.92-2.3v-3.92h1.54v3.7c0 .613.18 1.1.54 1.46.374.347.887.52 1.54.52 1.227 0 2.314-.327 3.26-.98v-4.7h1.54V150h-1.54zm9.063.22c-1.053 0-1.96-.287-2.72-.86-.76-.573-1.14-1.373-1.14-2.4 0-1.08.4-1.913 1.2-2.5.8-.587 1.874-.88 3.22-.88 1.067 0 2.12.147 3.16.44v-.32c0-.907-.266-1.6-.8-2.08-.533-.48-1.286-.72-2.26-.72-1.013 0-2.06.247-3.14.74l-.46-1.26c1.28-.587 2.534-.88 3.76-.88 1.467 0 2.58.38 3.34 1.14.72.72 1.08 1.733 1.08 3.04V150h-1.52v-1.54c-.92 1.173-2.16 1.76-3.72 1.76zm.3-1.24c.96 0 1.774-.26 2.44-.78.667-.52 1-1.187 1-2v-.96a10.83 10.83 0 00-3.02-.44c-.946 0-1.686.193-2.22.58-.533.373-.8.887-.8 1.54 0 .627.247 1.127.74 1.5.507.373 1.127.56 1.86.56zm8.702 1.18c-.4 0-.813-.053-1.24-.16l.18-1.32c.307.093.554.14.74.14.294 0 .534-.033.72-.1.187-.08.387-.273.6-.58.227-.32.4-.767.52-1.34.12-.573.22-1.387.3-2.44.094-1.053.14-2.333.14-3.84v-.86h7.32V150h-1.54v-8.98h-4.32v.24c0 1.573-.06 2.913-.18 4.02-.12 1.107-.273 1.973-.46 2.6-.173.627-.42 1.113-.74 1.46s-.633.567-.94.66c-.293.107-.66.16-1.1.16zm13.727-.16v-10.34h1.54v3.88h2.76c1.2 0 2.18.26 2.94.78.76.507 1.14 1.28 1.14 2.32 0 1.027-.353 1.847-1.06 2.46-.707.6-1.653.9-2.84.9h-4.48zm1.54-1.36h2.8c.787 0 1.393-.167 1.82-.5.44-.333.66-.82.66-1.46 0-.587-.227-1.033-.68-1.34-.44-.32-1.06-.48-1.86-.48h-2.74v3.78zm10.222 1.36v-10.34h1.54v4.46h5.96v-4.46h1.54V150h-1.54v-4.52h-5.96V150h-1.54zm22.06-1.34c-1.04 1.053-2.327 1.58-3.86 1.58s-2.813-.527-3.84-1.58c-1.013-1.053-1.52-2.327-1.52-3.82 0-1.48.513-2.747 1.54-3.8 1.04-1.067 2.327-1.6 3.86-1.6s2.813.527 3.84 1.58c1.027 1.053 1.54 2.327 1.54 3.82 0 1.48-.52 2.753-1.56 3.82zm-3.82.2c1.107 0 2.013-.387 2.72-1.16.72-.773 1.08-1.727 1.08-2.86 0-1.12-.373-2.073-1.12-2.86-.733-.787-1.64-1.18-2.72-1.18-1.107 0-2.013.393-2.72 1.18-.707.773-1.06 1.727-1.06 2.86 0 1.12.367 2.073 1.1 2.86.733.773 1.64 1.16 2.72 1.16zm8.75-4.06v-1.62h5.56v1.62h-5.56zm9.584 8.4v-13.54h1.54v2.08c1.04-1.533 2.36-2.3 3.96-2.3 1.32 0 2.473.493 3.46 1.48.987.973 1.48 2.28 1.48 3.92 0 1.613-.493 2.913-1.48 3.9-.987.987-2.14 1.48-3.46 1.48-1.627 0-2.947-.733-3.96-2.2v5.18h-1.54zm5.22-4.36c1.04 0 1.907-.36 2.6-1.08.693-.733 1.04-1.713 1.04-2.94 0-1.187-.353-2.147-1.06-2.88-.707-.747-1.567-1.12-2.58-1.12-1 0-1.873.38-2.62 1.14-.747.76-1.12 1.72-1.12 2.88s.373 2.12 1.12 2.88c.747.747 1.62 1.12 2.62 1.12zm13.581 1.4c-1.453 0-2.68-.5-3.68-1.5-.987-1.013-1.48-2.313-1.48-3.9 0-1.507.473-2.78 1.42-3.82.947-1.053 2.127-1.58 3.54-1.58 1.48 0 2.653.52 3.52 1.56s1.3 2.347 1.3 3.92c0 .2-.007.38-.02.54h-8.2c.107 1.053.5 1.893 1.18 2.52.693.613 1.513.92 2.46.92 1.24 0 2.327-.487 3.26-1.46l.96.86c-1.16 1.293-2.58 1.94-4.26 1.94zm-3.6-6.02h6.66c-.093-1-.427-1.827-1-2.48-.56-.667-1.327-1-2.3-1-.88 0-1.633.327-2.26.98-.627.653-.993 1.487-1.1 2.5zm14.996 6c-1.053 0-1.96-.287-2.72-.86-.76-.573-1.14-1.373-1.14-2.4 0-1.08.4-1.913 1.2-2.5.8-.587 1.873-.88 3.22-.88 1.067 0 2.12.147 3.16.44v-.32c0-.907-.267-1.6-.8-2.08s-1.287-.72-2.26-.72c-1.013 0-2.06.247-3.14.74l-.46-1.26c1.28-.587 2.533-.88 3.76-.88 1.467 0 2.58.38 3.34 1.14.72.72 1.08 1.733 1.08 3.04V150h-1.52v-1.54c-.92 1.173-2.16 1.76-3.72 1.76zm.3-1.24c.96 0 1.773-.26 2.44-.78s1-1.187 1-2v-.96a10.83 10.83 0 00-3.02-.44c-.947 0-1.687.193-2.22.58-.533.373-.8.887-.8 1.54 0 .627.247 1.127.74 1.5.507.373 1.127.56 1.86.56zm7.682 3.6v-3.94h1.12c.92-1.68 1.38-4.073 1.38-7.18v-1.8h7.36v8.98h1.56l-.24 3.94h-1.28V150h-8.36l-.28 2.58h-1.26zm2.76-3.94h5.56v-7.62h-4.34v1.44c0 2.6-.407 4.66-1.22 6.18zm11.912 1.36v-10.34h1.54V150h-1.54zm-.1-12.6v-1.7h1.76v1.7h-1.76zm5.714 12.76c-.4 0-.814-.053-1.24-.16l.18-1.32c.306.093.553.14.74.14.293 0 .533-.033.72-.1.186-.08.386-.273.6-.58.226-.32.4-.767.52-1.34.12-.573.22-1.387.3-2.44.093-1.053.14-2.333.14-3.84v-.86h7.32V150h-1.54v-8.98h-4.32v.24c0 1.573-.06 2.913-.18 4.02-.12 1.107-.274 1.973-.46 2.6-.174.627-.42 1.113-.74 1.46s-.634.567-.94.66c-.294.107-.66.16-1.1.16zm13.866-.16v-10.34h1.54V150h-1.54zm-.1-12.6v-1.7h1.76v1.7h-1.76zm8.714 12.6v-8.98h-3.7v-1.36h8.96v1.36h-3.7V150h-1.56zm11.58.22c-1.053 0-1.96-.287-2.72-.86-.76-.573-1.14-1.373-1.14-2.4 0-1.08.4-1.913 1.2-2.5.8-.587 1.874-.88 3.22-.88 1.067 0 2.12.147 3.16.44v-.32c0-.907-.266-1.6-.8-2.08-.533-.48-1.286-.72-2.26-.72-1.013 0-2.06.247-3.14.74l-.46-1.26c1.28-.587 2.534-.88 3.76-.88 1.467 0 2.58.38 3.34 1.14.72.72 1.08 1.733 1.08 3.04V150h-1.52v-1.54c-.92 1.173-2.16 1.76-3.72 1.76zm.3-1.24c.96 0 1.774-.26 2.44-.78.667-.52 1-1.187 1-2v-.96a10.83 10.83 0 00-3.02-.44c-.946 0-1.686.193-2.22.58-.533.373-.8.887-.8 1.54 0 .627.247 1.127.74 1.5.507.373 1.127.56 1.86.56zm18.122 3.6V150h-8.92v-10.34h1.54v8.98h5.8v-8.98h1.54v8.98h1.56l-.24 3.94h-1.28zm4.779-2.58v-10.34h1.54V150h-1.54zm-.1-12.6v-1.7h1.76v1.7h-1.76zm6.214 12.6v-10.34h1.54v8.18l6.14-8.18h1.5V150h-1.54v-8.18l-6.16 8.18h-1.48zm6.4-12.5c-.507.453-1.127.68-1.86.68-.734 0-1.36-.227-1.88-.68-.507-.453-.82-1.04-.94-1.76l1.06-.22c.266.933.853 1.4 1.76 1.4.906 0 1.493-.467 1.76-1.4l1.06.22c-.12.72-.44 1.307-.96 1.76zm7.217 12.5v-10.34h1.54v4.46h5.96v-4.46h1.54V150h-1.54v-4.52h-5.96V150h-1.54zm13.48 0v-10.34h1.54v8.18l6.14-8.18h1.5V150h-1.54v-8.18l-6.16 8.18h-1.48zm13.618 0v-10.34h1.54v8.18l6.14-8.18h1.5V150h-1.54v-8.18l-6.16 8.18h-1.48zm6.4-12.5c-.507.453-1.127.68-1.86.68-.734 0-1.36-.227-1.88-.68-.507-.453-.82-1.04-.94-1.76l1.06-.22c.266.933.853 1.4 1.76 1.4.906 0 1.493-.467 1.76-1.4l1.06.22c-.12.72-.44 1.307-.96 1.76zm-193.029 42.08V177h-8.92v-10.34h1.54v8.98h5.8v-8.98h1.54v8.98h1.56l-.24 3.94h-1.28zm9.158-2.34c-1.453 0-2.68-.5-3.68-1.5-.986-1.013-1.48-2.313-1.48-3.9 0-1.507.474-2.78 1.42-3.82.947-1.053 2.127-1.58 3.54-1.58 1.48 0 2.654.52 3.52 1.56.867 1.04 1.3 2.347 1.3 3.92 0 .2-.006.38-.02.54h-8.2c.107 1.053.5 1.893 1.18 2.52.694.613 1.514.92 2.46.92 1.24 0 2.327-.487 3.26-1.46l.96.86c-1.16 1.293-2.58 1.94-4.26 1.94zm-3.6-6.02h6.66c-.093-1-.426-1.827-1-2.48-.56-.667-1.326-1-2.3-1-.88 0-1.633.327-2.26.98-.626.653-.993 1.487-1.1 2.5zm11.916 5.78v-10.34h1.54v4.46h5.96v-4.46h1.54V177h-1.54v-4.52h-5.96V177h-1.54zm15.981 0v-8.98h-3.7v-1.36h8.96v1.36h-3.7V177h-1.56zm8.5 3.2v-13.54h1.54v2.08c1.04-1.533 2.36-2.3 3.96-2.3 1.32 0 2.473.493 3.46 1.48.986.973 1.48 2.28 1.48 3.92 0 1.613-.494 2.913-1.48 3.9-.987.987-2.14 1.48-3.46 1.48-1.627 0-2.947-.733-3.96-2.2v5.18h-1.54zm5.22-4.36c1.04 0 1.906-.36 2.6-1.08.693-.733 1.04-1.713 1.04-2.94 0-1.187-.354-2.147-1.06-2.88-.707-.747-1.567-1.12-2.58-1.12-1 0-1.874.38-2.62 1.14-.747.76-1.12 1.72-1.12 2.88s.373 2.12 1.12 2.88c.746.747 1.62 1.12 2.62 1.12zm16.317 1.16v-14h1.64l7.4 11.14V163h1.56v14h-1.42l-7.6-11.4V177h-1.58zm12.32-3.22v-1.12h5.02v1.12h-5.02zm2.52-2.54c-.787 0-1.44-.267-1.96-.8-.507-.547-.76-1.207-.76-1.98 0-.773.26-1.433.78-1.98.52-.547 1.173-.82 1.96-.82.773 0 1.413.273 1.92.82.52.533.78 1.187.78 1.96 0 .773-.26 1.433-.78 1.98-.52.547-1.167.82-1.94.82zm.02-1.02c.467 0 .84-.167 1.12-.5.293-.347.44-.773.44-1.28 0-.493-.153-.907-.46-1.24a1.402 1.402 0 00-1.12-.52c-.467 0-.847.173-1.14.52-.293.333-.44.753-.44 1.26 0 .493.153.913.46 1.26.307.333.687.5 1.14.5zm8.482 6.78v-12.46l-2.64.82-.38-1.28 3.42-1.18h1.16V177h-1.56zm7.328 0l6.32-12.56h-7.7V163h9.5v1.18l-6.36 12.82h-1.76z" fill="#1A394B"/><path d="M254.297 69.238l1.991 2.544v51.608H212.48c-3.872 2.434-7.025 2.323-10.897 0H157V71.561l2.213-2.71v48.897l9.845 1.162c.627.092 3.529.221 5.255 0 2.157-.277 11.118-4.26 15.82-4.536 4.702-.277 9.127-.332 9.625-.332.497 0 5.144.387 6.25 4.868h1.494c.645-1.789 3.661-4.868 7.688-4.868l8.574 1.106c5.365 1.494 15.82 5.2 18.696 5.2l11.837-2.268V69.238z" fill="#052DFF"/><path d="M206.67 121.731c.609-1.367 3.737-4.776 7.033-5.658 3.296-.882 5.483-.388 8.585.554 3.101.942 8.529 3.381 15.342 4.156h5.151l11.625-2.648V69.301l-4.702-5.927-6.923 5.927c-4.487 0-13.26-2.926-18.666-3.99-6.757-1.33-15.673-1.446-17.445 2.71v53.71zm0-.001c-.615-1.367-3.218-4.83-6.545-5.713-3.327-.882-5.534-.388-8.664.554-3.131.943-8.609 3.381-15.485 4.157h-5.199l-11.732-2.648V69.245l4.745-5.926 6.987 5.926c4.528 0 13.383-2.926 18.839-3.99 6.82-1.33 15.265-1.557 17.054 2.6v53.875z" fill="#FFE640"/><path d="M207 116c.623-1.373 2.804-3.845 6.175-4.731 3.372-.886 5.609-.39 8.782.557 3.172.946 8.724 3.395 15.693 4.174h3.241l9.109-1.66V63.346l-7.082.947c-4.589 0-13.563-2.94-19.092-4.008-6.912-1.336-14.956 2.227-16.769 6.401L207 116zm0 0c-.623-1.373-2.804-3.845-6.175-4.731-3.372-.886-5.609-.39-8.782.557-3.172.946-8.724 3.395-15.693 4.174h-5.268L164 114.275V63.346l7.082.947c4.589 0 13.563-2.94 19.092-4.008 6.912-1.336 14.956 2.227 16.769 6.401L207 116z" fill="#fff"/><path fill-rule="evenodd" clip-rule="evenodd" d="M203.624 65.86c7.155.113 8.562 9.891 8.371 14.766 1.932-2.742 11.447-8.578 16.813-4.992 5.366 3.586 5.724 7.664 5.223 10.828-.501 3.164-1.002 6.117-4.794 11.25-3.033 4.106-12.043 10.242-16.169 12.796 2.061 1.055 3.482 2.455 3.935 3.024-.687 0-4.007-1.688-5.581-2.532l-.715.563c1.832.818 3.005 2.028 3.363 2.531-1.26.113-3.959-.984-5.152-1.547l-.357.211c1.232.852 1.503 1.161 1.65 1.327a.72.72 0 00.281.22c-.973.169-2.79-.586-3.577-.984-1.374.618-2.767.773-3.291.773 1.669-.961 6.196-3.6 10.946-6.469 4.751-2.868 9.278-7.992 10.947-10.195-.811.703-2.962 2.588-5.08 4.5-2.647 2.391-12.449 9.211-16.169 11.039-2.977 1.463-4.007 1.641-4.15 1.547 1.813-1.266 6.339-4.373 9.945-6.68 3.606-2.306 9.516-8.413 12.02-11.179-3.124 2.789-9.573 8.522-10.374 9.14-1.002.774-11.806 7.524-12.95 7.735-.916.168-1.479.07-1.646 0l4.436-2.813c-3.84-2.133-12.521-7.537-16.527-12.093-4.65-5.287-4.983-10.635-5.064-11.937a6.681 6.681 0 00-.016-.227c-.072-.703-.787-8.648 7.083-11.11 6.296-1.968 12.783 3.165 15.239 5.977 2.218-2.39 1.718-4.922 1.36-5.695-.358-.773-1.288-2.46-3.22-2.39A2.902 2.902 0 00197.829 75c-1.26-1.125-.382-3.187.214-4.078-.114-4.106 3.673-5.086 5.581-5.062zm18.603 20.18c4.121 6.806-8.443 16.898-15.24 21.094-2.718-2.086-9.029-7.158-12.52-10.758-4.365-4.5-4.651-11.25 1.288-13.851 4.75-2.082 9.086 3.257 10.66 6.187.267-.246.559-.523.872-.82 3.636-3.453 10.198-9.684 14.94-1.852zm-17.137 21.268l-.948.724c-4.087-2.461-10.99-8.643-12.333-11.364 3.454 3.136 10.946 9.656 13.281 10.64zm-2.923 2.094l.869-.583c-1.375-.437-11.17-8.276-15.199-12.014 1.39 3.087 9.843 10.194 14.33 12.597z" fill="#052DFF"/><path d="M207.53 106.546c-7.086-10.832-8.345-17.934-2.481-20.438 1.038-.443 4.537-1.098 5.862 3.115-.105-1.266-1.538-5.379-5.849-4.817-5.388.703-5.824 6.283-5.898 6.892-.395 3.25 1.439 9.907 8.366 15.248z" fill="#FFE640"/><path d="M206.629 94.306a6.04 6.04 0 01.448-.5c.639-.634 1.448-1.145 2.405-1.52.53-.207 1.07-.356 1.596-.466l-3.825-.822 5.894.56c.392-.019.74-.02 1.024-.014l-.001-.01c-.88-1.115-3.007-3.437-5.748-3.86-1.345-.209-2.649.07-3.758.504a11.715 11.715 0 00-3.21 1.923s2.092 3.177 5.175 4.205z" fill="#FFE640"/><path d="M209.751 97.388l2.46-2.775c.402-.986.885-1.78 1.208-2.255-.985.026-2.362.17-3.657.675-.764.299-1.5.723-2.105 1.324-2.488 2.466-1.876 6.966-1.876 6.966s2.656.286 5.027-.64a6.927 6.927 0 001.066-.524 6.205 6.205 0 01-.184-.595c-.354-1.425-.177-2.825.192-4.034l-2.131 1.858z" fill="#FFE640"/><path d="M216.261 99.379l-2.054-6.546c-.699 1.034-2.26 3.735-1.588 6.449.856 3.452 5.008 5.605 5.008 5.605s2.677-3.346 1.936-6.746c-2.01-.906-3.418-2.643-4.262-3.992l.96 5.23zm6.401-8.429c-.155-.056-.312-.09-.469-.132a7.606 7.606 0 01-1.993 1.134 11.21 11.21 0 01-2.352.612l4.463 1.906-5.914-1.754a14.1 14.1 0 01-.732.021c.681 1.297 2.273 3.804 4.802 4.716 2.248.811 4.68.159 6.115-.402.781-.305 1.267-.583 1.267-.583s-1.717-4.267-5.187-5.519zm-2.59-4.234l-3.732 4.597c-.142.254-.272.46-.375.614.882-.014 2.458-.13 3.968-.72.862-.336 1.696-.827 2.355-1.54 2.376-2.569 1.575-7.05 1.575-7.05s-2.428-.165-4.672.711c-.845.331-1.662.812-2.315 1.503.734 1.784.597 3.434.21 4.724l2.986-2.84z" fill="#FFE640"/><path d="M213.912 89.748l-1.601-4.135 1.906 3.58s.001 0 0 0l.173.407.78 1.796c1.629-2.562 2.783-8.148-5.248-11 0 0-1.735 3.363-.799 6.457 2.017.46 3.677 1.764 4.789 2.895zm-13.601 10.757l-4.272-1.814 3.643 2.083h-.001l.42.193 1.845.872c-2.931 1.46-9.063 2.279-11.257-5.8 0 0 3.804-1.52 7.03-.421.275 2.016 1.496 3.726 2.592 4.887z" fill="#FFE640"/><defs><filter id="filter0_f" x="0" y="0" width="430" height="232" filterUnits="userSpaceOnUse" color-interpolation-filters="sRGB"><feFlood flood-opacity="0" result="BackgroundImageFix"/><feBlend in="SourceGraphic" in2="BackgroundImageFix" result="shape"/><feGaussianBlur stdDeviation="20" result="effect1_foregroundBlur"/></filter></defs></svg>