<svg width="430" height="239" viewBox="0 0 430 239" fill="none" xmlns="http://www.w3.org/2000/svg">
<g filter="url(#filter0_f)">
<rect x="40" y="40" width="350" height="152" fill="white"/>
</g>
<path d="M64.3023 150V136H65.8823V142.22H73.9623V136H75.5423V150H73.9623V143.7H65.8823V150H64.3023ZM83.3176 150.22C82.2642 150.22 81.3576 149.933 80.5976 149.36C79.8376 148.787 79.4576 147.987 79.4576 146.96C79.4576 145.88 79.8576 145.047 80.6576 144.46C81.4576 143.873 82.5309 143.58 83.8776 143.58C84.9442 143.58 85.9976 143.727 87.0376 144.02V143.7C87.0376 142.793 86.7709 142.1 86.2376 141.62C85.7042 141.14 84.9509 140.9 83.9776 140.9C82.9642 140.9 81.9176 141.147 80.8376 141.64L80.3776 140.38C81.6576 139.793 82.9109 139.5 84.1376 139.5C85.6042 139.5 86.7176 139.88 87.4776 140.64C88.1976 141.36 88.5576 142.373 88.5576 143.68V150H87.0376V148.46C86.1176 149.633 84.8776 150.22 83.3176 150.22ZM83.6176 148.98C84.5776 148.98 85.3909 148.72 86.0576 148.2C86.7242 147.68 87.0576 147.013 87.0576 146.2V145.24C86.0442 144.947 85.0376 144.8 84.0376 144.8C83.0909 144.8 82.3509 144.993 81.8176 145.38C81.2842 145.753 81.0176 146.267 81.0176 146.92C81.0176 147.547 81.2642 148.047 81.7576 148.42C82.2642 148.793 82.8842 148.98 83.6176 148.98ZM92.8196 150V139.66H97.8196C98.8463 139.66 99.6663 139.893 100.28 140.36C100.893 140.827 101.2 141.453 101.2 142.24C101.2 143.347 100.626 144.14 99.4796 144.62C101 145.033 101.76 145.887 101.76 147.18C101.76 148.047 101.42 148.733 100.74 149.24C100.06 149.747 99.1463 150 97.9996 150H92.8196ZM94.3596 148.68H97.7996C98.5329 148.68 99.1129 148.527 99.5396 148.22C99.9663 147.913 100.18 147.487 100.18 146.94C100.18 146.433 99.9529 146.04 99.4996 145.76C99.0596 145.48 98.4263 145.34 97.5996 145.34H94.3596V148.68ZM94.3596 144.1H97.5396C98.1796 144.1 98.6863 143.96 99.0596 143.68C99.4463 143.387 99.6396 142.973 99.6396 142.44C99.6396 142 99.4596 141.647 99.0996 141.38C98.7396 141.113 98.2329 140.98 97.5796 140.98H94.3596V144.1ZM112.098 150V145.74C111.685 145.98 111.145 146.2 110.478 146.4C109.812 146.587 109.198 146.68 108.638 146.68C107.598 146.68 106.765 146.413 106.138 145.88C105.525 145.347 105.218 144.58 105.218 143.58V139.66H106.758V143.36C106.758 143.973 106.938 144.46 107.298 144.82C107.672 145.167 108.185 145.34 108.838 145.34C110.065 145.34 111.152 145.013 112.098 144.36V139.66H113.638V150H112.098ZM121.161 150.22C120.108 150.22 119.201 149.933 118.441 149.36C117.681 148.787 117.301 147.987 117.301 146.96C117.301 145.88 117.701 145.047 118.501 144.46C119.301 143.873 120.375 143.58 121.721 143.58C122.788 143.58 123.841 143.727 124.881 144.02V143.7C124.881 142.793 124.615 142.1 124.081 141.62C123.548 141.14 122.795 140.9 121.821 140.9C120.808 140.9 119.761 141.147 118.681 141.64L118.221 140.38C119.501 139.793 120.755 139.5 121.981 139.5C123.448 139.5 124.561 139.88 125.321 140.64C126.041 141.36 126.401 142.373 126.401 143.68V150H124.881V148.46C123.961 149.633 122.721 150.22 121.161 150.22ZM121.461 148.98C122.421 148.98 123.235 148.72 123.901 148.2C124.568 147.68 124.901 147.013 124.901 146.2V145.24C123.888 144.947 122.881 144.8 121.881 144.8C120.935 144.8 120.195 144.993 119.661 145.38C119.128 145.753 118.861 146.267 118.861 146.92C118.861 147.547 119.108 148.047 119.601 148.42C120.108 148.793 120.728 148.98 121.461 148.98ZM130.163 150.16C129.763 150.16 129.35 150.107 128.923 150L129.103 148.68C129.41 148.773 129.657 148.82 129.843 148.82C130.137 148.82 130.377 148.787 130.563 148.72C130.75 148.64 130.95 148.447 131.163 148.14C131.39 147.82 131.563 147.373 131.683 146.8C131.803 146.227 131.903 145.413 131.983 144.36C132.077 143.307 132.123 142.027 132.123 140.52V139.66H139.443V150H137.903V141.02H133.583V141.26C133.583 142.833 133.523 144.173 133.403 145.28C133.283 146.387 133.13 147.253 132.943 147.88C132.77 148.507 132.523 148.993 132.203 149.34C131.883 149.687 131.57 149.907 131.263 150C130.97 150.107 130.603 150.16 130.163 150.16ZM143.89 150V139.66H145.43V143.54H148.19C149.39 143.54 150.37 143.8 151.13 144.32C151.89 144.827 152.27 145.6 152.27 146.64C152.27 147.667 151.917 148.487 151.21 149.1C150.503 149.7 149.557 150 148.37 150H143.89ZM145.43 148.64H148.23C149.017 148.64 149.623 148.473 150.05 148.14C150.49 147.807 150.71 147.32 150.71 146.68C150.71 146.093 150.483 145.647 150.03 145.34C149.59 145.02 148.97 144.86 148.17 144.86H145.43V148.64ZM155.652 150V139.66H157.192V144.12H163.152V139.66H164.692V150H163.152V145.48H157.192V150H155.652ZM177.712 148.66C176.672 149.713 175.385 150.24 173.852 150.24C172.319 150.24 171.039 149.713 170.012 148.66C168.999 147.607 168.492 146.333 168.492 144.84C168.492 143.36 169.005 142.093 170.032 141.04C171.072 139.973 172.359 139.44 173.892 139.44C175.425 139.44 176.705 139.967 177.732 141.02C178.759 142.073 179.272 143.347 179.272 144.84C179.272 146.32 178.752 147.593 177.712 148.66ZM173.892 148.86C174.999 148.86 175.905 148.473 176.612 147.7C177.332 146.927 177.692 145.973 177.692 144.84C177.692 143.72 177.319 142.767 176.572 141.98C175.839 141.193 174.932 140.8 173.852 140.8C172.745 140.8 171.839 141.193 171.132 141.98C170.425 142.753 170.072 143.707 170.072 144.84C170.072 145.96 170.439 146.913 171.172 147.7C171.905 148.473 172.812 148.86 173.892 148.86ZM182.642 144.8V143.18H188.202V144.8H182.642ZM192.226 153.2V139.66H193.766V141.74C194.806 140.207 196.126 139.44 197.726 139.44C199.046 139.44 200.199 139.933 201.186 140.92C202.173 141.893 202.666 143.2 202.666 144.84C202.666 146.453 202.173 147.753 201.186 148.74C200.199 149.727 199.046 150.22 197.726 150.22C196.099 150.22 194.779 149.487 193.766 148.02V153.2H192.226ZM197.446 148.84C198.486 148.84 199.353 148.48 200.046 147.76C200.739 147.027 201.086 146.047 201.086 144.82C201.086 143.633 200.733 142.673 200.026 141.94C199.319 141.193 198.459 140.82 197.446 140.82C196.446 140.82 195.573 141.2 194.826 141.96C194.079 142.72 193.706 143.68 193.706 144.84C193.706 146 194.079 146.96 194.826 147.72C195.573 148.467 196.446 148.84 197.446 148.84ZM211.027 150.24C209.574 150.24 208.347 149.74 207.347 148.74C206.36 147.727 205.867 146.427 205.867 144.84C205.867 143.333 206.34 142.06 207.287 141.02C208.234 139.967 209.414 139.44 210.827 139.44C212.307 139.44 213.48 139.96 214.347 141C215.214 142.04 215.647 143.347 215.647 144.92C215.647 145.12 215.64 145.3 215.627 145.46H207.427C207.534 146.513 207.927 147.353 208.607 147.98C209.3 148.593 210.12 148.9 211.067 148.9C212.307 148.9 213.394 148.413 214.327 147.44L215.287 148.3C214.127 149.593 212.707 150.24 211.027 150.24ZM207.427 144.22H214.087C213.994 143.22 213.66 142.393 213.087 141.74C212.527 141.073 211.76 140.74 210.787 140.74C209.907 140.74 209.154 141.067 208.527 141.72C207.9 142.373 207.534 143.207 207.427 144.22ZM222.423 150.22C221.37 150.22 220.463 149.933 219.703 149.36C218.943 148.787 218.563 147.987 218.563 146.96C218.563 145.88 218.963 145.047 219.763 144.46C220.563 143.873 221.636 143.58 222.983 143.58C224.05 143.58 225.103 143.727 226.143 144.02V143.7C226.143 142.793 225.876 142.1 225.343 141.62C224.81 141.14 224.056 140.9 223.083 140.9C222.07 140.9 221.023 141.147 219.943 141.64L219.483 140.38C220.763 139.793 222.016 139.5 223.243 139.5C224.71 139.5 225.823 139.88 226.583 140.64C227.303 141.36 227.663 142.373 227.663 143.68V150H226.143V148.46C225.223 149.633 223.983 150.22 222.423 150.22ZM222.723 148.98C223.683 148.98 224.496 148.72 225.163 148.2C225.83 147.68 226.163 147.013 226.163 146.2V145.24C225.15 144.947 224.143 144.8 223.143 144.8C222.196 144.8 221.456 144.993 220.923 145.38C220.39 145.753 220.123 146.267 220.123 146.92C220.123 147.547 220.37 148.047 220.863 148.42C221.37 148.793 221.99 148.98 222.723 148.98ZM230.405 152.58V148.64H231.525C232.445 146.96 232.905 144.567 232.905 141.46V139.66H240.265V148.64H241.825L241.585 152.58H240.305V150H231.945L231.665 152.58H230.405ZM233.165 148.64H238.725V141.02H234.385V142.46C234.385 145.06 233.978 147.12 233.165 148.64ZM245.077 150V139.66H246.617V150H245.077ZM244.977 137.4V135.7H246.737V137.4H244.977ZM250.691 150.16C250.291 150.16 249.877 150.107 249.451 150L249.631 148.68C249.937 148.773 250.184 148.82 250.371 148.82C250.664 148.82 250.904 148.787 251.091 148.72C251.277 148.64 251.477 148.447 251.691 148.14C251.917 147.82 252.091 147.373 252.211 146.8C252.331 146.227 252.431 145.413 252.511 144.36C252.604 143.307 252.651 142.027 252.651 140.52V139.66H259.971V150H258.431V141.02H254.111V141.26C254.111 142.833 254.051 144.173 253.931 145.28C253.811 146.387 253.657 147.253 253.471 147.88C253.297 148.507 253.051 148.993 252.731 149.34C252.411 149.687 252.097 149.907 251.791 150C251.497 150.107 251.131 150.16 250.691 150.16ZM264.557 150V139.66H266.097V150H264.557ZM264.457 137.4V135.7H266.217V137.4H264.457ZM273.171 150V141.02H269.471V139.66H278.431V141.02H274.731V150H273.171ZM284.751 150.22C283.698 150.22 282.791 149.933 282.031 149.36C281.271 148.787 280.891 147.987 280.891 146.96C280.891 145.88 281.291 145.047 282.091 144.46C282.891 143.873 283.965 143.58 285.311 143.58C286.378 143.58 287.431 143.727 288.471 144.02V143.7C288.471 142.793 288.205 142.1 287.671 141.62C287.138 141.14 286.385 140.9 285.411 140.9C284.398 140.9 283.351 141.147 282.271 141.64L281.811 140.38C283.091 139.793 284.345 139.5 285.571 139.5C287.038 139.5 288.151 139.88 288.911 140.64C289.631 141.36 289.991 142.373 289.991 143.68V150H288.471V148.46C287.551 149.633 286.311 150.22 284.751 150.22ZM285.051 148.98C286.011 148.98 286.825 148.72 287.491 148.2C288.158 147.68 288.491 147.013 288.491 146.2V145.24C287.478 144.947 286.471 144.8 285.471 144.8C284.525 144.8 283.785 144.993 283.251 145.38C282.718 145.753 282.451 146.267 282.451 146.92C282.451 147.547 282.698 148.047 283.191 148.42C283.698 148.793 284.318 148.98 285.051 148.98ZM303.173 152.58V150H294.253V139.66H295.793V148.64H301.593V139.66H303.133V148.64H304.693L304.453 152.58H303.173ZM307.952 150V139.66H309.492V150H307.952ZM307.852 137.4V135.7H309.612V137.4H307.852ZM314.066 150V139.66H315.606V147.84L321.746 139.66H323.246V150H321.706V141.82L315.546 150H314.066ZM320.466 137.5C319.959 137.953 319.339 138.18 318.606 138.18C317.872 138.18 317.246 137.953 316.726 137.5C316.219 137.047 315.906 136.46 315.786 135.74L316.846 135.52C317.112 136.453 317.699 136.92 318.606 136.92C319.512 136.92 320.099 136.453 320.366 135.52L321.426 135.74C321.306 136.46 320.986 137.047 320.466 137.5ZM327.683 150V139.66H329.223V144.12H335.183V139.66H336.723V150H335.183V145.48H329.223V150H327.683ZM341.163 150V139.66H342.703V147.84L348.843 139.66H350.343V150H348.803V141.82L342.643 150H341.163ZM354.781 150V139.66H356.321V147.84L362.461 139.66H363.961V150H362.421V141.82L356.261 150H354.781ZM361.181 137.5C360.674 137.953 360.054 138.18 359.321 138.18C358.587 138.18 357.961 137.953 357.441 137.5C356.934 137.047 356.621 136.46 356.501 135.74L357.561 135.52C357.827 136.453 358.414 136.92 359.321 136.92C360.227 136.92 360.814 136.453 361.081 135.52L362.141 135.74C362.021 136.46 361.701 137.047 361.181 137.5ZM168.152 179.58V177H159.232V166.66H160.772V175.64H166.572V166.66H168.112V175.64H169.672L169.432 179.58H168.152ZM177.31 177.24C175.857 177.24 174.63 176.74 173.63 175.74C172.644 174.727 172.15 173.427 172.15 171.84C172.15 170.333 172.624 169.06 173.57 168.02C174.517 166.967 175.697 166.44 177.11 166.44C178.59 166.44 179.764 166.96 180.63 168C181.497 169.04 181.93 170.347 181.93 171.92C181.93 172.12 181.924 172.3 181.91 172.46H173.71C173.817 173.513 174.21 174.353 174.89 174.98C175.584 175.593 176.404 175.9 177.35 175.9C178.59 175.9 179.677 175.413 180.61 174.44L181.57 175.3C180.41 176.593 178.99 177.24 177.31 177.24ZM173.71 171.22H180.37C180.277 170.22 179.944 169.393 179.37 168.74C178.81 168.073 178.044 167.74 177.07 167.74C176.19 167.74 175.437 168.067 174.81 168.72C174.184 169.373 173.817 170.207 173.71 171.22ZM185.626 177V166.66H187.166V171.12H193.126V166.66H194.666V177H193.126V172.48H187.166V177H185.626ZM201.607 177V168.02H197.907V166.66H206.867V168.02H203.167V177H201.607ZM210.107 180.2V166.66H211.647V168.74C212.687 167.207 214.007 166.44 215.607 166.44C216.927 166.44 218.08 166.933 219.067 167.92C220.053 168.893 220.547 170.2 220.547 171.84C220.547 173.453 220.053 174.753 219.067 175.74C218.08 176.727 216.927 177.22 215.607 177.22C213.98 177.22 212.66 176.487 211.647 175.02V180.2H210.107ZM215.327 175.84C216.367 175.84 217.233 175.48 217.927 174.76C218.62 174.027 218.967 173.047 218.967 171.82C218.967 170.633 218.613 169.673 217.907 168.94C217.2 168.193 216.34 167.82 215.327 167.82C214.327 167.82 213.453 168.2 212.707 168.96C211.96 169.72 211.587 170.68 211.587 171.84C211.587 173 211.96 173.96 212.707 174.72C213.453 175.467 214.327 175.84 215.327 175.84ZM231.644 177V163H233.284L240.684 174.14V163H242.244V177H240.824L233.224 165.6V177H231.644ZM243.964 173.78V172.66H248.984V173.78H243.964ZM246.484 171.24C245.697 171.24 245.044 170.973 244.524 170.44C244.017 169.893 243.764 169.233 243.764 168.46C243.764 167.687 244.024 167.027 244.544 166.48C245.064 165.933 245.717 165.66 246.504 165.66C247.277 165.66 247.917 165.933 248.424 166.48C248.944 167.013 249.204 167.667 249.204 168.44C249.204 169.213 248.944 169.873 248.424 170.42C247.904 170.967 247.257 171.24 246.484 171.24ZM246.504 170.22C246.971 170.22 247.344 170.053 247.624 169.72C247.917 169.373 248.064 168.947 248.064 168.44C248.064 167.947 247.911 167.533 247.604 167.2C247.311 166.853 246.937 166.68 246.484 166.68C246.017 166.68 245.637 166.853 245.344 167.2C245.051 167.533 244.904 167.953 244.904 168.46C244.904 168.953 245.057 169.373 245.364 169.72C245.671 170.053 246.051 170.22 246.504 170.22ZM254.986 177V164.54L252.346 165.36L251.966 164.08L255.386 162.9H256.546V177H254.986ZM262.314 177L268.634 164.44H260.934V163H270.434V164.18L264.074 177H262.314Z" fill="#1A394B"/>
<path d="M254.297 69.2378L256.288 71.7822V123.39H212.48C208.608 125.824 205.455 125.713 201.583 123.39H157V71.561L159.213 68.8506V117.748L169.058 118.91C169.685 119.002 172.587 119.131 174.313 118.91C176.47 118.633 185.431 114.65 190.133 114.374C194.835 114.097 199.26 114.042 199.758 114.042C200.255 114.042 204.902 114.429 206.008 118.91H207.502C208.147 117.121 211.163 114.042 215.19 114.042L223.764 115.148C229.129 116.642 239.584 120.348 242.46 120.348L254.297 118.08V69.2378Z" fill="#052DFF"/>
<path d="M206.67 121.731C207.279 120.364 210.407 116.955 213.703 116.073C216.999 115.191 219.186 115.685 222.288 116.627C225.389 117.569 230.817 120.008 237.63 120.783H242.781L254.406 118.135V69.301L249.704 63.3745L242.781 69.301C238.294 69.301 229.521 66.375 224.115 65.311C217.358 63.981 208.442 63.8646 206.67 68.0209V121.731Z" fill="#FFE640"/>
<path d="M206.67 121.73C206.055 120.363 203.452 116.9 200.125 116.017C196.798 115.135 194.591 115.629 191.461 116.571C188.33 117.514 182.852 119.952 175.976 120.728H170.777L159.045 118.08V69.2454L163.79 63.3188L170.777 69.2454C175.305 69.2454 184.16 66.3194 189.616 65.2553C196.436 63.9253 204.881 63.6983 206.67 67.8546V121.73Z" fill="#FFE640"/>
<path d="M207 116C207.623 114.627 209.804 112.155 213.175 111.269C216.547 110.383 218.784 110.879 221.957 111.826C225.129 112.772 230.681 115.221 237.65 116H240.891L250 114.34V63.3465L242.918 64.2927C238.329 64.2927 229.355 61.3539 223.826 60.2852C216.914 58.9494 208.87 62.5116 207.057 66.686L207 116Z" fill="white"/>
<path d="M207 116C206.377 114.627 204.196 112.155 200.825 111.269C197.453 110.383 195.216 110.879 192.043 111.826C188.871 112.772 183.319 115.221 176.35 116H171.082L164 114.275V63.3465L171.082 64.2927C175.671 64.2927 184.645 61.3539 190.174 60.2852C197.086 58.9494 205.13 62.5116 206.943 66.686L207 116Z" fill="white"/>
<path fill-rule="evenodd" clip-rule="evenodd" d="M203.624 65.8608C210.779 65.9733 212.186 75.7512 211.995 80.6261C213.927 77.8839 223.442 72.0481 228.808 75.634C234.174 79.2198 234.532 83.2979 234.031 86.4619C233.53 89.6259 233.029 92.5789 229.237 97.7116C226.204 101.818 217.194 107.954 213.068 110.508C215.129 111.563 216.55 112.963 217.003 113.532C216.316 113.532 212.996 111.844 211.422 111L210.707 111.563C212.539 112.381 213.712 113.591 214.07 114.094C212.81 114.207 210.111 113.11 208.918 112.547L208.561 112.758C209.793 113.61 210.064 113.919 210.211 114.085C210.294 114.18 210.337 114.229 210.492 114.305C209.519 114.474 207.702 113.719 206.915 113.321C205.541 113.939 204.148 114.094 203.624 114.094C205.293 113.133 209.82 110.494 214.57 107.625C219.321 104.757 223.848 99.6334 225.517 97.4304C224.706 98.1335 222.555 100.018 220.437 101.93C217.79 104.321 207.988 111.141 204.268 112.969C201.291 114.432 200.261 114.61 200.118 114.516C201.931 113.25 206.457 110.143 210.063 107.836C213.669 105.53 219.579 99.4225 222.083 96.657C218.959 99.446 212.51 105.179 211.709 105.797C210.707 106.571 199.903 113.321 198.759 113.532C197.843 113.7 197.28 113.602 197.113 113.532L201.549 110.719C197.709 108.586 189.028 103.182 185.022 98.6257C180.372 93.3387 180.039 87.9911 179.958 86.6892C179.952 86.5887 179.947 86.5123 179.942 86.4619C179.87 85.7588 179.155 77.8136 187.025 75.3527C193.321 73.384 199.808 78.5167 202.264 81.3292C204.482 78.9386 203.982 76.4074 203.624 75.634C203.266 74.8606 202.336 73.1731 200.404 73.2434C198.859 73.2997 198.043 74.4387 197.829 75.0012C196.569 73.8762 197.447 71.8138 198.043 70.9231C197.929 66.817 201.716 65.8373 203.624 65.8608ZM222.227 86.0402C226.348 92.8463 213.784 102.938 206.987 107.134C204.269 105.048 197.958 99.9759 194.467 96.376C190.102 91.8761 189.816 85.1262 195.755 82.5247C200.505 80.4435 204.841 85.7824 206.415 88.7121C206.682 88.4665 206.974 88.1894 207.287 87.8916C210.923 84.4391 217.485 78.2081 222.227 86.0402ZM205.09 107.308L204.142 108.032C200.055 105.571 193.152 99.3894 191.809 96.6678C195.263 99.8045 202.755 106.324 205.09 107.308ZM202.167 109.402L203.036 108.819C201.661 108.382 191.866 100.543 187.837 96.805C189.227 99.8923 197.68 106.999 202.167 109.402Z" fill="#052DFF"/>
<path d="M207.53 106.546C200.444 95.7136 199.185 88.6123 205.049 86.1083C206.087 85.6647 209.586 85.01 210.911 89.223C210.806 87.957 209.373 83.8443 205.062 84.4065C199.674 85.1091 199.238 90.689 199.164 91.2984C198.769 94.5484 200.603 101.205 207.53 106.546Z" fill="#FFE640"/>
<path d="M206.629 94.3064C206.768 94.1335 206.916 93.9658 207.077 93.8057C207.716 93.1721 208.525 92.6606 209.482 92.2866C210.012 92.0791 210.552 91.9299 211.078 91.8196L207.253 90.9976L213.147 91.5578C213.539 91.5393 213.887 91.5381 214.171 91.5444C214.17 91.5418 214.17 91.5382 214.17 91.5346C213.29 90.4187 211.163 88.0973 208.422 87.6732C207.077 87.4653 205.773 87.7442 204.664 88.1777C202.777 88.9155 201.454 90.1013 201.454 90.1013C201.454 90.1013 203.546 93.2777 206.629 94.3064Z" fill="#FFE640"/>
<path d="M209.751 97.3882L212.211 94.613C212.613 93.6267 213.096 92.8328 213.419 92.3575C212.434 92.3841 211.057 92.5272 209.762 93.0332C208.998 93.3318 208.262 93.7564 207.657 94.3573C205.169 96.8233 205.781 101.323 205.781 101.323C205.781 101.323 208.437 101.609 210.808 100.683C211.174 100.54 211.532 100.366 211.874 100.159C211.805 99.9643 211.74 99.7676 211.69 99.5637C211.336 98.1394 211.513 96.7392 211.882 95.5303L209.751 97.3882Z" fill="#FFE640"/>
<path d="M216.261 99.3787L214.207 92.8326C213.508 93.8671 211.947 96.5677 212.619 99.2818C213.475 102.734 217.627 104.887 217.627 104.887C217.627 104.887 220.304 101.541 219.563 98.141C217.553 97.2354 216.145 95.4982 215.301 94.1494L216.261 99.3787Z" fill="#FFE640"/>
<path d="M222.662 90.9495C222.507 90.8939 222.35 90.8603 222.193 90.8176C221.625 91.2711 220.963 91.6541 220.2 91.9521C219.399 92.2652 218.587 92.4485 217.848 92.5637L222.311 94.4703L216.397 92.7158C216.116 92.7301 215.862 92.738 215.665 92.7373C216.346 94.0338 217.938 96.5408 220.467 97.4533C222.715 98.2641 225.147 97.6115 226.582 97.0507C227.363 96.7457 227.849 96.4677 227.849 96.4677C227.849 96.4677 226.132 92.2013 222.662 90.9495Z" fill="#FFE640"/>
<path d="M220.072 86.7157L216.34 91.3126C216.198 91.5667 216.068 91.7727 215.965 91.9275C216.847 91.9135 218.423 91.7976 219.933 91.2075C220.795 90.8706 221.629 90.3797 222.288 89.6672C224.664 87.0985 223.863 82.6164 223.863 82.6164C223.863 82.6164 221.435 82.4516 219.191 83.3284C218.346 83.6593 217.529 84.1404 216.876 84.8306C217.61 86.6155 217.473 88.2647 217.086 89.5554L220.072 86.7157Z" fill="#FFE640"/>
<path d="M213.912 89.7479L212.311 85.6131L214.217 89.1937C214.217 89.1937 214.218 89.1932 214.217 89.1928L214.39 89.6004L215.17 91.3955C216.799 88.834 217.953 83.2477 209.922 80.3969C209.922 80.3969 208.187 83.7591 209.123 86.8534C211.14 87.3133 212.8 88.6165 213.912 89.7479Z" fill="#FFE640"/>
<path d="M200.311 100.505L196.039 98.6909L199.682 100.774C199.682 100.774 199.682 100.774 199.681 100.774L200.101 100.967L201.946 101.839C199.015 103.299 192.883 104.118 190.689 96.0387C190.689 96.0387 194.493 94.5195 197.719 95.618C197.994 97.6335 199.215 99.3443 200.311 100.505Z" fill="#FFE640"/>
<defs>
<filter id="filter0_f" x="0" y="0" width="430" height="232" filterUnits="userSpaceOnUse" color-interpolation-filters="sRGB">
<feFlood flood-opacity="0" result="BackgroundImageFix"/>
<feBlend mode="normal" in="SourceGraphic" in2="BackgroundImageFix" result="shape"/>
<feGaussianBlur stdDeviation="20" result="effect1_foregroundBlur"/>
</filter>
</defs>
</svg>
