<svg width="78" height="20" viewBox="0 0 78 20" fill="none" xmlns="http://www.w3.org/2000/svg">
<ellipse cx="8" cy="10" rx="8" ry="6" fill="#039200"/>
<ellipse cx="34.5" cy="10" rx="7.5" ry="6" fill="#FBFF2F"/>
<ellipse cx="59.5" cy="10" rx="7.5" ry="6" fill="#FF0202"/>
<path d="M77.75 10C77.75 12.6678 76.3449 15.0999 74.04 16.8729C71.7348 18.6461 68.5395 19.75 65 19.75C61.4605 19.75 58.2652 18.6461 55.96 16.8729C53.6551 15.0999 52.25 12.6678 52.25 10C52.25 7.3322 53.6551 4.90011 55.96 3.12709C58.2652 1.35386 61.4605 0.25 65 0.25C68.5395 0.25 71.7348 1.35386 74.04 3.12709C76.3449 4.90011 77.75 7.3322 77.75 10Z" stroke="#FF0202" stroke-width="0.5"/>
</svg>
