<svg width="77" height="20" viewBox="0 0 77 20" fill="none" xmlns="http://www.w3.org/2000/svg">
<ellipse cx="69" cy="10" rx="8" ry="6" transform="rotate(-180 69 10)" fill="#039200"/>
<ellipse cx="44" cy="10" rx="8" ry="6" transform="rotate(-180 44 10)" fill="#FBFF2F"/>
<ellipse cx="18" cy="10" rx="8" ry="6" transform="rotate(-180 18 10)" fill="#FF0202"/>
<path d="M0.249999 10C0.25 7.3322 1.65511 4.90011 3.96004 3.12709C6.26524 1.35386 9.46051 0.250001 13 0.250001C16.5395 0.250001 19.7348 1.35386 22.04 3.12709C24.3449 4.90011 25.75 7.33221 25.75 10C25.75 12.6678 24.3449 15.0999 22.04 16.8729C19.7348 18.6461 16.5395 19.75 13 19.75C9.46051 19.75 6.26524 18.6461 3.96004 16.8729C1.65511 15.0999 0.249999 12.6678 0.249999 10Z" stroke="#FF0202" stroke-width="0.5"/>
</svg>
